PathFileType	4	(x/y/z)	TRC_MarkerData\Passive\Passive_Pref0003.trc
DataRate	CameraRate	NumFrames	NumMarkers	Units	OrigDataRate	OrigDataStartFrame	OrigNumFrames
240	240	5	50	mm	240	263	300
Frame#	Time	R_AC			L_AC			HEAD			STERN			C7			L_IC			R_IC			L_ASIS			R_ASIS			L_GT			R_GT			L_PSIS			R_PSIS			SACRAL			L_LAT_KNEE			L_MED_KNEE			R_LAT_KNEE			R_MED_KNEE			L_LAT_ANK			L_MED_ANK			R_LAT_ANK			R_MED_ANK			L_THIGH_PROX_POST			L_THIGH_PROX_ANT			L_THIGH_DIST_ANT			L_THIGH_DIST_POST			R_THIGH_PROX_POST			R_THIGH_PROX_ANT			R_THIGH_DIST_ANT			R_THIGH_DIST_POST			L_SHANK_PROX_POST			L_SHANK_PROX_ANT			L_SHANK_DIST_ANT			L_SHANK_DIST_POST			R_SHANK_PROX_POST			R_SHANK_PROX_ANT			R_SHANK_DIST_ANT			R_SHANK_DIST_POST			L_HEEL_LAT			L_HEEL_SUP			L_HEEL_MED			R_HEEL_LAT			R_HEEL_SUP			R_HEEL_MED			L_1ST_MET			L_5TH_MET			L_TOE			R_1ST_MET			R_5TH_MET			R_TOE			
		X1	Y1	Z1	X2	Y2	Z2	X3	Y3	Z3	X4	Y4	Z4	X5	Y5	Z5	X6	Y6	Z6	X7	Y7	Z7	X8	Y8	Z8	X9	Y9	Z9	X10	Y10	Z10	X11	Y11	Z11	X12	Y12	Z12	X13	Y13	Z13	X14	Y14	Z14	X15	Y15	Z15	X16	Y16	Z16	X17	Y17	Z17	X18	Y18	Z18	X19	Y19	Z19	X20	Y20	Z20	X21	Y21	Z21	X22	Y22	Z22	X23	Y23	Z23	X24	Y24	Z24	X25	Y25	Z25	X26	Y26	Z26	X27	Y27	Z27	X28	Y28	Z28	X29	Y29	Z29	X30	Y30	Z30	X31	Y31	Z31	X32	Y32	Z32	X33	Y33	Z33	X34	Y34	Z34	X35	Y35	Z35	X36	Y36	Z36	X37	Y37	Z37	X38	Y38	Z38	X39	Y39	Z39	X40	Y40	Z40	X41	Y41	Z41	X42	Y42	Z42	X43	Y43	Z43	X44	Y44	Z44	X45	Y45	Z45	X46	Y46	Z46	X47	Y47	Z47	X48	Y48	Z48	X49	Y49	Z49	X50	Y50	Z50	

263	1.0953	526.2	1536.7	489.9	516.14	1561.8	97.8	638.55	1843	308.29	619.31	1508	293.39	477.74	1591.5	297.16	524.14	1103.9	127.38	526.27	1120.9	467.52	593.29	1044.7	167.56	588.43	1041	437.65	525.71	962.68	106.95	491.4	976.15	479.38	386.9	1057.8	242.34	390.93	1069.6	350.37	375.47	1040.5	297.76	703.43	587.77	145.34	706.79	592.08	281.44	417.36	562.56	437.05	439.91	558.99	313.28	695.32	133.98	142.91	685.24	133.26	219.73	300.56	115.99	367.57	336.41	133.93	272.65	564.12	809.1	120.19	625.71	829.38	122.95	659.05	760.01	131.52	593.22	741.33	130.31	442.04	808.73	470.12	508.2	797.09	478.96	490.54	725.41	466.16	423.97	737.13	455.09	714.22	534.83	151.52	753.74	553.63	167.86	759.15	503.74	172.84	714.66	480.61	154.96	307.19	420.76	413.5	373.55	417.4	438.7	369.66	344.08	425.18	303.95	345.1	401.81	643.84	51.456	135.6	626.05	72.833	170.82	635.67	41.022	201.2	231.31	73.139	334.52	231.13	99.726	298.64	247.37	70.385	269.1	853.74	80.288	253.29	849.53	77.976	146.28	905.73	98.768	235.53	474.33	42.764	297.94	426.35	35.56	403.23	513.11	44.366	353.61
264	1.0995	531.16	1535.6	489.66	521.39	1560.8	97.548	643.59	1842	308.05	624.39	1506.9	293.2	482.87	1590.4	296.88	528.92	1102.8	127.22	531.14	1119.9	467.4	598.05	1043.5	167.44	593.15	1040	437.58	530.44	961.5	106.86	495.87	975.46	479.3	391.69	1056.8	242.25	395.71	1068.9	350.23	380.21	1039.7	297.63	709.01	587.35	145.96	712.33	591.71	282.07	418.92	562.52	437.09	441.28	558.84	313.29	710.39	133.5	143.52	700.36	132.6	220.35	300.72	116.18	367.47	336.65	134.09	272.59	568.78	807.83	120.39	630.38	828.07	123.01	664.16	758.73	131.76	597.87	740.08	130.75	445.37	808.52	470.18	511.52	796.44	478.86	493.37	724.9	466.03	426.86	737.08	455.13	720.89	534.64	152.13	760.01	554.25	168.45	766.45	504.48	173.43	722.46	480.43	155.56	308.09	421.06	413.44	374.39	417.53	438.74	370.31	344.19	425.22	304.64	345.41	401.76	660.62	49.929	136.21	642.35	70.927	171.43	652.67	39.299	201.79	231.4	73.44	334.38	231.26	100.04	298.5	247.49	70.678	268.97	869.89	83.083	253.84	865.73	80.731	146.82	921.47	102.65	236.05	474.38	42.738	297.99	426.26	35.549	403.25	513.14	44.311	353.68
265	1.1037	536.15	1534.4	489.41	526.65	1559.7	97.287	648.63	1840.9	307.79	629.49	1505.7	292.99	488	1589.4	296.6	533.7	1101.6	127.04	536.02	1118.9	467.28	602.82	1042.3	167.3	597.88	1038.9	437.49	535.17	960.27	106.76	500.35	974.74	479.2	396.49	1055.8	242.15	400.5	1068.1	350.08	384.95	1038.9	297.51	714.54	586.87	146.56	717.84	591.3	282.67	420.53	562.47	437.12	442.69	558.66	313.31	725.32	133.17	144.12	715.36	132.09	220.97	300.88	116.36	367.37	336.88	134.26	272.54	573.44	806.5	120.57	635.06	826.72	123.04	669.21	757.41	131.98	602.53	738.77	131.17	448.74	808.29	470.24	514.87	795.76	478.75	496.23	724.36	465.9	429.79	737	455.17	727.5	534.42	152.72	766.2	554.83	169.02	773.66	505.2	174	730.19	480.25	156.15	309.02	421.35	413.38	375.27	417.64	438.79	370.97	344.31	425.25	305.37	345.71	401.71	677.26	48.594	136.84	658.53	69.206	172.05	669.53	37.776	202.41	231.49	73.734	334.24	231.39	100.34	298.36	247.61	70.972	268.84	885.83	86.011	254.36	881.7	83.62	147.35	936.99	106.66	236.55	474.44	42.714	298.04	426.19	35.535	403.28	513.17	44.256	353.75
266	1.1079	541.18	1533.2	489.15	531.92	1558.7	97.019	653.69	1839.8	307.54	634.6	1504.5	292.77	493.16	1588.3	296.32	538.49	1100.4	126.86	540.92	1117.9	467.14	607.6	1041.1	167.16	602.63	1037.8	437.38	539.92	959	106.66	504.85	973.99	479.1	401.3	1054.7	242.05	405.3	1067.3	349.93	389.7	1038	297.38	720.04	586.35	147.14	723.33	590.85	283.25	422.18	562.39	437.15	444.16	558.47	313.34	740.09	132.98	144.72	730.23	131.73	221.61	301.04	116.53	367.28	337.11	134.43	272.5	578.1	805.14	120.73	639.77	825.32	123.04	674.17	756.04	132.21	607.18	737.43	131.56	452.14	808.04	470.31	518.25	795.06	478.64	499.12	723.8	465.77	432.76	736.9	455.2	734.06	534.17	153.29	772.33	555.36	169.56	780.8	505.9	174.55	737.84	480.06	156.72	309.98	421.65	413.33	376.18	417.75	438.84	371.67	344.41	425.29	306.12	346.02	401.68	693.75	47.445	137.49	674.57	67.664	172.68	686.25	36.447	203.03	231.57	74.024	334.11	231.52	100.64	298.24	247.73	71.266	268.72	901.55	89.062	254.87	897.44	86.63	147.87	952.27	110.77	237.02	474.48	42.691	298.1	426.12	35.519	403.3	513.2	44.202	353.82
267	1.112	546.23	1532	488.89	537.19	1557.5	96.742	658.75	1838.6	307.27	639.73	1503.3	292.53	498.34	1587.2	296.03	543.28	1099.2	126.66	545.84	1116.9	466.99	612.4	1039.8	167	607.4	1036.7	437.27	544.69	957.69	106.55	509.37	973.21	478.98	406.12	1053.7	241.94	410.11	1066.4	349.76	394.46	1037.2	297.24	725.49	585.78	147.69	728.8	590.36	283.81	423.88	562.3	437.19	445.69	558.26	313.36	754.69	132.92	145.32	744.95	131.51	222.25	301.2	116.7	367.19	337.35	134.6	272.47	582.78	803.74	120.87	644.51	823.89	123.02	679.04	754.63	132.43	611.84	736.04	131.94	455.58	807.76	470.38	521.66	794.34	478.54	502.05	723.22	465.64	435.77	736.76	455.23	740.56	533.89	153.84	778.39	555.85	170.08	787.85	506.56	175.07	745.43	479.87	157.28	310.99	421.94	413.29	377.13	417.85	438.9	372.39	344.51	425.33	306.9	346.32	401.66	710.06	46.472	138.14	690.46	66.297	173.33	702.81	35.305	203.66	231.66	74.313	333.99	231.65	100.95	298.13	247.84	71.565	268.6	917.04	92.225	255.36	912.94	89.749	148.37	967.31	114.96	237.48	474.53	42.669	298.16	426.05	35.499	403.32	513.23	44.146	353.9
